<svg aria-hidden="true" style="position: absolute; width: 0; height: 0; overflow: hidden;" version="1.1" xmlns="http://www.w3.org/2000/svg" xmlns:xlink="http://www.w3.org/1999/xlink">
<defs>
<symbol id="icon-close" viewBox="0 0 32 32">
<path d="M28.743 3.278c-0.187-0.188-0.409-0.336-0.654-0.438s-0.507-0.154-0.772-0.154c-0.265 0-0.527 0.052-0.772 0.154s-0.467 0.25-0.654 0.438l-9.891 9.871-9.891-9.891c-0.187-0.187-0.41-0.336-0.654-0.437s-0.507-0.154-0.772-0.154c-0.265 0-0.527 0.052-0.772 0.154s-0.467 0.25-0.654 0.437c-0.187 0.187-0.336 0.41-0.437 0.654s-0.154 0.507-0.154 0.772c0 0.265 0.052 0.527 0.154 0.772s0.25 0.467 0.437 0.654l9.891 9.891-9.891 9.891c-0.187 0.187-0.336 0.409-0.437 0.654s-0.154 0.507-0.154 0.772c0 0.265 0.052 0.527 0.154 0.772s0.25 0.467 0.437 0.654c0.187 0.187 0.41 0.336 0.654 0.437s0.507 0.153 0.772 0.153c0.265 0 0.527-0.052 0.772-0.153s0.467-0.25 0.654-0.437l9.891-9.891 9.891 9.891c0.187 0.187 0.409 0.336 0.654 0.437s0.507 0.153 0.772 0.153c0.265 0 0.527-0.052 0.772-0.153s0.467-0.25 0.654-0.437c0.187-0.187 0.336-0.41 0.437-0.654s0.153-0.507 0.153-0.772c0-0.265-0.052-0.527-0.153-0.772s-0.25-0.467-0.437-0.654l-9.891-9.891 9.891-9.891c0.769-0.769 0.769-2.063 0-2.832z"></path>
</symbol>
<symbol id="icon-check-mark" viewBox="0 0 32 32">
<path d="M27 4l-15 15-7-7-5 5 12 12 20-20z"></path>
</symbol>
</defs>
</svg>
